<mxfile host="app.diagrams.net" modified="2024-07-04T12:22:16.739Z" agent="Mozilla/5.0 (Macintosh; Intel Mac OS X 10_15_7) AppleWebKit/537.36 (KHTML, like Gecko) Chrome/125.0.0.0 Safari/537.36" etag="Eg8Et_Wio7cdk_HEYvVh" version="24.6.4" type="device">
  <diagram name="Qemu-QOM-Accelerators" id="D-Aoh0ssoimnm3_9vpRk">
    <mxGraphModel dx="2691" dy="1003" grid="1" gridSize="10" guides="1" tooltips="1" connect="1" arrows="1" fold="1" page="1" pageScale="1" pageWidth="850" pageHeight="1100" math="0" shadow="0">
      <root>
        <mxCell id="0" />
        <mxCell id="1" parent="0" />
        <mxCell id="RpB18B1KrWQebZzPlhfr-26" value="&lt;font style=&quot;font-size: 14px;&quot;&gt;type的meta&lt;/font&gt;" style="text;html=1;align=center;verticalAlign=middle;whiteSpace=wrap;rounded=0;" parent="1" vertex="1">
          <mxGeometry x="-747" y="125" width="90" height="30" as="geometry" />
        </mxCell>
        <mxCell id="RpB18B1KrWQebZzPlhfr-27" value="&lt;font style=&quot;font-size: 14px;&quot;&gt;class-object&lt;/font&gt;" style="text;html=1;align=center;verticalAlign=middle;whiteSpace=wrap;rounded=0;" parent="1" vertex="1">
          <mxGeometry x="-747" y="410" width="90" height="30" as="geometry" />
        </mxCell>
        <mxCell id="RpB18B1KrWQebZzPlhfr-29" value="&lt;font style=&quot;font-size: 14px;&quot;&gt;object&lt;/font&gt;" style="text;html=1;align=center;verticalAlign=middle;whiteSpace=wrap;rounded=0;" parent="1" vertex="1">
          <mxGeometry x="-760" y="702" width="90" height="30" as="geometry" />
        </mxCell>
        <mxCell id="RpB18B1KrWQebZzPlhfr-45" value="" style="group" parent="1" vertex="1" connectable="0">
          <mxGeometry x="-617" y="40" width="440" height="787" as="geometry" />
        </mxCell>
        <mxCell id="RpB18B1KrWQebZzPlhfr-5" value="&lt;font style=&quot;font-size: 15px;&quot;&gt;&lt;b&gt;struct TypeImpl实例&lt;/b&gt;&lt;/font&gt;&lt;div style=&quot;font-size: 15px;&quot;&gt;&lt;font style=&quot;font-size: 15px;&quot;&gt;&lt;br&gt;&lt;/font&gt;&lt;/div&gt;&lt;div style=&quot;font-size: 15px;&quot;&gt;&lt;font style=&quot;font-size: 15px;&quot;&gt;&lt;br&gt;&lt;/font&gt;&lt;/div&gt;&lt;div style=&quot;font-size: 15px;&quot;&gt;&lt;font style=&quot;font-size: 15px;&quot;&gt;&lt;br&gt;&lt;/font&gt;&lt;/div&gt;&lt;div style=&quot;font-size: 15px;&quot;&gt;&lt;font style=&quot;font-size: 15px;&quot;&gt;&lt;br&gt;&lt;/font&gt;&lt;/div&gt;&lt;div style=&quot;font-size: 15px;&quot;&gt;&lt;font style=&quot;font-size: 15px;&quot;&gt;&lt;br&gt;&lt;/font&gt;&lt;/div&gt;&lt;div style=&quot;font-size: 15px;&quot;&gt;&lt;font style=&quot;font-size: 15px;&quot;&gt;&lt;br&gt;&lt;/font&gt;&lt;/div&gt;&lt;div style=&quot;font-size: 15px;&quot;&gt;&lt;font style=&quot;font-size: 15px;&quot;&gt;&lt;br&gt;&lt;/font&gt;&lt;/div&gt;&lt;div style=&quot;font-size: 15px;&quot;&gt;&lt;br&gt;&lt;/div&gt;" style="html=1;whiteSpace=wrap;fillColor=#d5e8d4;strokeColor=none;" parent="RpB18B1KrWQebZzPlhfr-45" vertex="1">
          <mxGeometry width="440" height="200" as="geometry" />
        </mxCell>
        <mxCell id="RpB18B1KrWQebZzPlhfr-6" value="&lt;font style=&quot;font-size: 14px;&quot; face=&quot;Courier New&quot;&gt;name&amp;nbsp; &amp;nbsp; &amp;nbsp; &amp;nbsp; &amp;nbsp; = &quot;kvm-accel&quot;;&lt;/font&gt;&lt;div style=&quot;font-size: 14px;&quot;&gt;&lt;font style=&quot;font-size: 14px;&quot; face=&quot;Courier New&quot;&gt;parent&amp;nbsp; &amp;nbsp; &amp;nbsp; &amp;nbsp; = &quot;accel&quot;;&lt;/font&gt;&lt;/div&gt;&lt;div style=&quot;font-size: 14px;&quot;&gt;&lt;font style=&quot;font-size: 14px;&quot; face=&quot;Courier New&quot;&gt;instance_init =&amp;nbsp;&lt;b&gt;kvm_accel_instance_init&lt;/b&gt;;&lt;/font&gt;&lt;/div&gt;&lt;div style=&quot;font-size: 14px;&quot;&gt;&lt;font style=&quot;font-size: 14px;&quot; face=&quot;Courier New&quot;&gt;class_init&amp;nbsp; &amp;nbsp; =&amp;nbsp;kvm_accel_class_init;&lt;/font&gt;&lt;/div&gt;&lt;div style=&quot;font-size: 14px;&quot;&gt;&lt;font style=&quot;font-size: 14px;&quot; face=&quot;Courier New&quot;&gt;instance_size = sizeof(KVMState);&lt;/font&gt;&lt;/div&gt;&lt;div style=&quot;&quot;&gt;&lt;span style=&quot;font-size: 14px; font-family: &amp;quot;Courier New&amp;quot;; background-color: initial;&quot;&gt;class&amp;nbsp; &amp;nbsp; &amp;nbsp; &amp;nbsp; &amp;nbsp;=&amp;nbsp;&lt;/span&gt;&lt;span style=&quot;background-color: initial; font-size: 14px;&quot;&gt;&lt;font face=&quot;Courier New&quot;&gt;ObjectClass&lt;/font&gt;&lt;/span&gt;&lt;span style=&quot;background-color: initial; font-family: &amp;quot;Courier New&amp;quot;; font-size: 14px;&quot;&gt;指针&lt;/span&gt;&lt;/div&gt;" style="text;html=1;align=left;verticalAlign=middle;whiteSpace=wrap;rounded=0;" parent="RpB18B1KrWQebZzPlhfr-45" vertex="1">
          <mxGeometry x="50" y="40" width="360" height="150" as="geometry" />
        </mxCell>
        <mxCell id="RpB18B1KrWQebZzPlhfr-17" value="" style="text;html=1;align=center;verticalAlign=middle;whiteSpace=wrap;rounded=0;strokeColor=default;" parent="RpB18B1KrWQebZzPlhfr-45" vertex="1">
          <mxGeometry x="184" y="149" width="126" height="20" as="geometry" />
        </mxCell>
        <mxCell id="RpB18B1KrWQebZzPlhfr-19" value="" style="group" parent="RpB18B1KrWQebZzPlhfr-45" vertex="1" connectable="0">
          <mxGeometry y="260" width="440" height="250" as="geometry" />
        </mxCell>
        <mxCell id="RpB18B1KrWQebZzPlhfr-9" value="&lt;b&gt;&lt;font style=&quot;font-size: 15px;&quot;&gt;struct AccelClass实例&lt;/font&gt;&lt;/b&gt;&lt;div&gt;&lt;br&gt;&lt;/div&gt;&lt;div&gt;&lt;br&gt;&lt;/div&gt;&lt;div&gt;&lt;br&gt;&lt;/div&gt;&lt;div&gt;&lt;br&gt;&lt;/div&gt;&lt;div&gt;&lt;br&gt;&lt;/div&gt;&lt;div&gt;&lt;br&gt;&lt;/div&gt;&lt;div&gt;&lt;br&gt;&lt;/div&gt;&lt;div&gt;&lt;br&gt;&lt;/div&gt;&lt;div&gt;&lt;br&gt;&lt;/div&gt;&lt;div&gt;&lt;br&gt;&lt;/div&gt;&lt;div&gt;&lt;br&gt;&lt;/div&gt;&lt;div&gt;&lt;br&gt;&lt;/div&gt;&lt;div&gt;&lt;br&gt;&lt;/div&gt;" style="rounded=1;whiteSpace=wrap;html=1;fillColor=#dae8fc;strokeColor=none;" parent="RpB18B1KrWQebZzPlhfr-19" vertex="1">
          <mxGeometry width="440" height="250" as="geometry" />
        </mxCell>
        <mxCell id="RpB18B1KrWQebZzPlhfr-8" value="&lt;font face=&quot;Courier New&quot; style=&quot;&quot;&gt;&lt;span style=&quot;font-size: 14px;&quot;&gt;ObjectClass parent_class&lt;/span&gt;&lt;/font&gt;&lt;div style=&quot;font-size: 14px;&quot;&gt;&lt;font face=&quot;LMsWPeLu8gXbLElCwSG8&quot; style=&quot;font-size: 14px;&quot;&gt;&amp;nbsp; &amp;nbsp; &lt;/font&gt;&lt;font face=&quot;Courier New&quot; style=&quot;font-size: 14px;&quot;&gt;.type&amp;nbsp; &amp;nbsp; &amp;nbsp; &amp;nbsp;= TypeImpl指针&lt;/font&gt;&lt;div&gt;&lt;font face=&quot;Courier New&quot; style=&quot;font-size: 14px;&quot;&gt;&amp;nbsp; .&lt;span style=&quot;background-color: initial;&quot;&gt;interfaces = 本class实现的接口&lt;/span&gt;&lt;/font&gt;&lt;/div&gt;&lt;div&gt;&lt;font face=&quot;lV9W4yIe8TjZZVj4JChy&quot; style=&quot;font-size: 14px;&quot;&gt;&amp;nbsp; &amp;nbsp; ......&lt;/font&gt;&lt;/div&gt;&lt;/div&gt;&lt;div style=&quot;font-size: 14px;&quot;&gt;&lt;font face=&quot;Courier New&quot; style=&quot;font-size: 14px;&quot;&gt;&lt;br&gt;&lt;/font&gt;&lt;/div&gt;&lt;div style=&quot;font-size: 14px;&quot;&gt;&lt;font face=&quot;Courier New&quot; style=&quot;font-size: 14px;&quot;&gt;name&amp;nbsp; &amp;nbsp; &amp;nbsp; &amp;nbsp; &amp;nbsp;= &quot;KVM&quot;;&lt;/font&gt;&lt;/div&gt;&lt;div style=&quot;font-size: 14px;&quot;&gt;&lt;font face=&quot;Courier New&quot; style=&quot;font-size: 14px;&quot;&gt;init_machine =&amp;nbsp;&lt;b&gt;kvm_init&lt;/b&gt;;&lt;/font&gt;&lt;/div&gt;" style="text;html=1;align=left;verticalAlign=middle;whiteSpace=wrap;rounded=0;" parent="RpB18B1KrWQebZzPlhfr-19" vertex="1">
          <mxGeometry x="50" y="60" width="360" height="170" as="geometry" />
        </mxCell>
        <mxCell id="RpB18B1KrWQebZzPlhfr-22" value="" style="text;html=1;align=center;verticalAlign=middle;whiteSpace=wrap;rounded=0;strokeColor=default;" parent="RpB18B1KrWQebZzPlhfr-19" vertex="1">
          <mxGeometry x="186" y="102" width="100" height="16" as="geometry" />
        </mxCell>
        <mxCell id="RpB18B1KrWQebZzPlhfr-24" value="" style="endArrow=classic;html=1;rounded=0;exitX=1;exitY=0.5;exitDx=0;exitDy=0;entryX=0.75;entryY=0;entryDx=0;entryDy=0;edgeStyle=orthogonalEdgeStyle;curved=1;dashed=1;" parent="RpB18B1KrWQebZzPlhfr-45" source="RpB18B1KrWQebZzPlhfr-17" target="RpB18B1KrWQebZzPlhfr-9" edge="1">
          <mxGeometry width="50" height="50" relative="1" as="geometry">
            <mxPoint x="247" y="171" as="sourcePoint" />
            <mxPoint x="246.4000000000001" y="259.75" as="targetPoint" />
            <Array as="points">
              <mxPoint x="330" y="159" />
            </Array>
          </mxGeometry>
        </mxCell>
        <mxCell id="RpB18B1KrWQebZzPlhfr-25" value="" style="endArrow=classic;html=1;rounded=0;exitX=0;exitY=0.5;exitDx=0;exitDy=0;entryX=0.25;entryY=1;entryDx=0;entryDy=0;edgeStyle=orthogonalEdgeStyle;curved=1;dashed=1;" parent="RpB18B1KrWQebZzPlhfr-45" source="RpB18B1KrWQebZzPlhfr-22" target="RpB18B1KrWQebZzPlhfr-5" edge="1">
          <mxGeometry width="50" height="50" relative="1" as="geometry">
            <mxPoint x="218.68" y="361" as="sourcePoint" />
            <mxPoint x="218.00000000000017" y="203.5999999999999" as="targetPoint" />
          </mxGeometry>
        </mxCell>
        <mxCell id="RpB18B1KrWQebZzPlhfr-28" value="&lt;span style=&quot;font-family: &amp;quot;Courier New&amp;quot;; text-align: left;&quot;&gt;&lt;b style=&quot;&quot;&gt;&lt;font style=&quot;font-size: 15px;&quot;&gt;struct KVMState实例&lt;/font&gt;&lt;/b&gt;&lt;/span&gt;&lt;div&gt;&lt;br&gt;&lt;/div&gt;&lt;div&gt;&lt;span style=&quot;font-family: &amp;quot;Courier New&amp;quot;; font-size: 14px; text-align: left;&quot;&gt;&lt;br&gt;&lt;/span&gt;&lt;/div&gt;&lt;div&gt;&lt;span style=&quot;font-family: &amp;quot;Courier New&amp;quot;; font-size: 14px; text-align: left;&quot;&gt;&lt;br&gt;&lt;/span&gt;&lt;/div&gt;&lt;div&gt;&lt;span style=&quot;font-family: &amp;quot;Courier New&amp;quot;; font-size: 14px; text-align: left;&quot;&gt;&lt;br&gt;&lt;/span&gt;&lt;/div&gt;&lt;div&gt;&lt;span style=&quot;font-family: &amp;quot;Courier New&amp;quot;; font-size: 14px; text-align: left;&quot;&gt;&lt;br&gt;&lt;/span&gt;&lt;/div&gt;&lt;div&gt;&lt;span style=&quot;font-family: &amp;quot;Courier New&amp;quot;; font-size: 14px; text-align: left;&quot;&gt;&lt;br&gt;&lt;/span&gt;&lt;/div&gt;&lt;div&gt;&lt;span style=&quot;font-family: &amp;quot;Courier New&amp;quot;; font-size: 14px; text-align: left;&quot;&gt;&lt;br&gt;&lt;/span&gt;&lt;/div&gt;&lt;div&gt;&lt;span style=&quot;font-family: &amp;quot;Courier New&amp;quot;; font-size: 14px; text-align: left;&quot;&gt;&lt;br&gt;&lt;/span&gt;&lt;/div&gt;&lt;div&gt;&lt;span style=&quot;font-family: &amp;quot;Courier New&amp;quot;; font-size: 14px; text-align: left;&quot;&gt;&lt;br&gt;&lt;/span&gt;&lt;/div&gt;&lt;div&gt;&lt;span style=&quot;font-family: &amp;quot;Courier New&amp;quot;; font-size: 14px; text-align: left;&quot;&gt;&lt;br&gt;&lt;/span&gt;&lt;/div&gt;" style="rounded=1;whiteSpace=wrap;html=1;fillColor=#f8cecc;strokeColor=none;" parent="RpB18B1KrWQebZzPlhfr-45" vertex="1">
          <mxGeometry y="567" width="440" height="220" as="geometry" />
        </mxCell>
        <mxCell id="RpB18B1KrWQebZzPlhfr-42" value="&lt;font face=&quot;Courier New&quot;&gt;&lt;span style=&quot;font-size: 14px;&quot;&gt;AccelState parent_obj&lt;/span&gt;&lt;/font&gt;&lt;div&gt;&lt;font face=&quot;Courier New&quot;&gt;&lt;span style=&quot;font-size: 14px;&quot;&gt;&amp;nbsp; &amp;nbsp; Object parent_obj&lt;/span&gt;&lt;/font&gt;&lt;/div&gt;&lt;div&gt;&lt;font face=&quot;Courier New&quot;&gt;&lt;span style=&quot;font-size: 14px;&quot;&gt;&amp;nbsp; &amp;nbsp; &amp;nbsp; &amp;nbsp;&amp;nbsp;&lt;/span&gt;&lt;/font&gt;&lt;span style=&quot;background-color: initial; font-size: 14px;&quot;&gt;&lt;font face=&quot;Courier New&quot;&gt;ObjectClass *class = class-object指针&lt;/font&gt;&lt;/span&gt;&lt;/div&gt;&lt;div&gt;&lt;div style=&quot;font-size: 14px;&quot;&gt;&lt;font face=&quot;Courier New&quot; style=&quot;font-size: 14px;&quot;&gt;&lt;br&gt;&lt;/font&gt;&lt;/div&gt;&lt;div style=&quot;font-size: 14px;&quot;&gt;&lt;font face=&quot;Courier New&quot;&gt;fd&amp;nbsp; &amp;nbsp;= &quot;/dev/kvm&quot;的fd;&lt;/font&gt;&lt;/div&gt;&lt;/div&gt;&lt;div style=&quot;&quot;&gt;&lt;font style=&quot;&quot; face=&quot;Courier New&quot;&gt;&lt;span style=&quot;font-size: 14px;&quot;&gt;vmfd =&amp;nbsp;&lt;/span&gt;&lt;/font&gt;&lt;span style=&quot;background-color: initial; font-size: 14px;&quot;&gt;&lt;font face=&quot;Courier New&quot;&gt;kvm_ioctl(s, KVM_CREATE_VM, type);&lt;/font&gt;&lt;/span&gt;&lt;font style=&quot;&quot; face=&quot;Courier New&quot;&gt;&lt;br&gt;&lt;/font&gt;&lt;/div&gt;&lt;div style=&quot;&quot;&gt;&lt;span style=&quot;background-color: initial; font-size: 14px;&quot;&gt;&lt;font face=&quot;Courier New&quot;&gt;...&lt;/font&gt;&lt;/span&gt;&lt;/div&gt;" style="text;html=1;align=left;verticalAlign=middle;whiteSpace=wrap;rounded=0;" parent="RpB18B1KrWQebZzPlhfr-45" vertex="1">
          <mxGeometry x="30" y="617" width="410" height="170" as="geometry" />
        </mxCell>
        <mxCell id="RpB18B1KrWQebZzPlhfr-43" value="" style="text;html=1;align=center;verticalAlign=middle;whiteSpace=wrap;rounded=0;strokeColor=default;" parent="RpB18B1KrWQebZzPlhfr-45" vertex="1">
          <mxGeometry x="273" y="673" width="136" height="20" as="geometry" />
        </mxCell>
        <mxCell id="RpB18B1KrWQebZzPlhfr-44" value="" style="endArrow=classic;html=1;rounded=0;exitX=1;exitY=0.5;exitDx=0;exitDy=0;entryX=0.75;entryY=1;entryDx=0;entryDy=0;edgeStyle=orthogonalEdgeStyle;curved=1;dashed=1;" parent="RpB18B1KrWQebZzPlhfr-45" source="RpB18B1KrWQebZzPlhfr-43" target="RpB18B1KrWQebZzPlhfr-9" edge="1">
          <mxGeometry width="50" height="50" relative="1" as="geometry">
            <mxPoint x="690" y="360" as="sourcePoint" />
            <mxPoint x="740" y="310" as="targetPoint" />
          </mxGeometry>
        </mxCell>
        <mxCell id="RpB18B1KrWQebZzPlhfr-46" value="" style="group" parent="1" vertex="1" connectable="0">
          <mxGeometry x="-107" y="40" width="440" height="787" as="geometry" />
        </mxCell>
        <mxCell id="RpB18B1KrWQebZzPlhfr-47" value="&lt;font style=&quot;font-size: 15px;&quot;&gt;&lt;b&gt;struct TypeImpl实例&lt;/b&gt;&lt;/font&gt;&lt;div style=&quot;font-size: 15px;&quot;&gt;&lt;font style=&quot;font-size: 15px;&quot;&gt;&lt;br&gt;&lt;/font&gt;&lt;/div&gt;&lt;div style=&quot;font-size: 15px;&quot;&gt;&lt;font style=&quot;font-size: 15px;&quot;&gt;&lt;br&gt;&lt;/font&gt;&lt;/div&gt;&lt;div style=&quot;font-size: 15px;&quot;&gt;&lt;font style=&quot;font-size: 15px;&quot;&gt;&lt;br&gt;&lt;/font&gt;&lt;/div&gt;&lt;div style=&quot;font-size: 15px;&quot;&gt;&lt;font style=&quot;font-size: 15px;&quot;&gt;&lt;br&gt;&lt;/font&gt;&lt;/div&gt;&lt;div style=&quot;font-size: 15px;&quot;&gt;&lt;font style=&quot;font-size: 15px;&quot;&gt;&lt;br&gt;&lt;/font&gt;&lt;/div&gt;&lt;div style=&quot;font-size: 15px;&quot;&gt;&lt;font style=&quot;font-size: 15px;&quot;&gt;&lt;br&gt;&lt;/font&gt;&lt;/div&gt;&lt;div style=&quot;font-size: 15px;&quot;&gt;&lt;font style=&quot;font-size: 15px;&quot;&gt;&lt;br&gt;&lt;/font&gt;&lt;/div&gt;&lt;div style=&quot;font-size: 15px;&quot;&gt;&lt;br&gt;&lt;/div&gt;" style="html=1;whiteSpace=wrap;fillColor=#d5e8d4;strokeColor=none;" parent="RpB18B1KrWQebZzPlhfr-46" vertex="1">
          <mxGeometry width="440" height="200" as="geometry" />
        </mxCell>
        <mxCell id="RpB18B1KrWQebZzPlhfr-48" value="&lt;font style=&quot;font-size: 14px;&quot; face=&quot;Courier New&quot;&gt;name&amp;nbsp; &amp;nbsp; &amp;nbsp; &amp;nbsp; &amp;nbsp; = &quot;tcg-accel&quot;;&lt;/font&gt;&lt;div style=&quot;font-size: 14px;&quot;&gt;&lt;font style=&quot;font-size: 14px;&quot; face=&quot;Courier New&quot;&gt;parent&amp;nbsp; &amp;nbsp; &amp;nbsp; &amp;nbsp; = &quot;accel&quot;;&lt;/font&gt;&lt;/div&gt;&lt;div style=&quot;font-size: 14px;&quot;&gt;&lt;font style=&quot;font-size: 14px;&quot; face=&quot;Courier New&quot;&gt;instance_init =&amp;nbsp;&lt;/font&gt;&lt;b style=&quot;font-family: &amp;quot;Courier New&amp;quot;;&quot;&gt;tcg_accel_instance_init&lt;/b&gt;&lt;font style=&quot;font-size: 14px;&quot; face=&quot;Courier New&quot;&gt;;&lt;/font&gt;&lt;/div&gt;&lt;div style=&quot;font-size: 14px;&quot;&gt;&lt;font style=&quot;font-size: 14px;&quot; face=&quot;Courier New&quot;&gt;class_init&amp;nbsp; &amp;nbsp; =&amp;nbsp;&lt;/font&gt;&lt;span style=&quot;font-family: &amp;quot;Courier New&amp;quot;;&quot;&gt;tcg_accel_class_init&lt;/span&gt;&lt;font style=&quot;font-size: 14px;&quot; face=&quot;Courier New&quot;&gt;;&lt;/font&gt;&lt;/div&gt;&lt;div style=&quot;font-size: 14px;&quot;&gt;&lt;font style=&quot;font-size: 14px;&quot; face=&quot;Courier New&quot;&gt;instance_size = sizeof(&lt;/font&gt;&lt;span style=&quot;font-family: &amp;quot;Courier New&amp;quot;;&quot;&gt;TCGState&lt;/span&gt;&lt;font style=&quot;font-size: 14px;&quot; face=&quot;Courier New&quot;&gt;);&lt;/font&gt;&lt;/div&gt;&lt;div style=&quot;&quot;&gt;&lt;span style=&quot;font-size: 14px; font-family: &amp;quot;Courier New&amp;quot;; background-color: initial;&quot;&gt;class&amp;nbsp; &amp;nbsp; &amp;nbsp; &amp;nbsp; &amp;nbsp;=&amp;nbsp;&lt;/span&gt;&lt;span style=&quot;background-color: initial; font-size: 14px;&quot;&gt;&lt;font face=&quot;Courier New&quot;&gt;ObjectClass&lt;/font&gt;&lt;/span&gt;&lt;span style=&quot;background-color: initial; font-family: &amp;quot;Courier New&amp;quot;; font-size: 14px;&quot;&gt;指针&lt;/span&gt;&lt;/div&gt;" style="text;html=1;align=left;verticalAlign=middle;whiteSpace=wrap;rounded=0;" parent="RpB18B1KrWQebZzPlhfr-46" vertex="1">
          <mxGeometry x="50" y="40" width="360" height="150" as="geometry" />
        </mxCell>
        <mxCell id="RpB18B1KrWQebZzPlhfr-49" value="" style="text;html=1;align=center;verticalAlign=middle;whiteSpace=wrap;rounded=0;strokeColor=default;" parent="RpB18B1KrWQebZzPlhfr-46" vertex="1">
          <mxGeometry x="184" y="149" width="126" height="20" as="geometry" />
        </mxCell>
        <mxCell id="RpB18B1KrWQebZzPlhfr-50" value="" style="group" parent="RpB18B1KrWQebZzPlhfr-46" vertex="1" connectable="0">
          <mxGeometry y="260" width="440" height="250" as="geometry" />
        </mxCell>
        <mxCell id="RpB18B1KrWQebZzPlhfr-51" value="&lt;b&gt;&lt;font style=&quot;font-size: 15px;&quot;&gt;struct AccelClass实例&lt;/font&gt;&lt;/b&gt;&lt;div&gt;&lt;br&gt;&lt;/div&gt;&lt;div&gt;&lt;br&gt;&lt;/div&gt;&lt;div&gt;&lt;br&gt;&lt;/div&gt;&lt;div&gt;&lt;br&gt;&lt;/div&gt;&lt;div&gt;&lt;br&gt;&lt;/div&gt;&lt;div&gt;&lt;br&gt;&lt;/div&gt;&lt;div&gt;&lt;br&gt;&lt;/div&gt;&lt;div&gt;&lt;br&gt;&lt;/div&gt;&lt;div&gt;&lt;br&gt;&lt;/div&gt;&lt;div&gt;&lt;br&gt;&lt;/div&gt;&lt;div&gt;&lt;br&gt;&lt;/div&gt;&lt;div&gt;&lt;br&gt;&lt;/div&gt;&lt;div&gt;&lt;br&gt;&lt;/div&gt;" style="rounded=1;whiteSpace=wrap;html=1;fillColor=#dae8fc;strokeColor=none;" parent="RpB18B1KrWQebZzPlhfr-50" vertex="1">
          <mxGeometry width="440" height="250" as="geometry" />
        </mxCell>
        <mxCell id="RpB18B1KrWQebZzPlhfr-52" value="&lt;font face=&quot;Courier New&quot; style=&quot;&quot;&gt;&lt;span style=&quot;font-size: 14px;&quot;&gt;ObjectClass parent_class&lt;/span&gt;&lt;/font&gt;&lt;div style=&quot;font-size: 14px;&quot;&gt;&lt;font face=&quot;LMsWPeLu8gXbLElCwSG8&quot; style=&quot;font-size: 14px;&quot;&gt;&amp;nbsp; &amp;nbsp; &lt;/font&gt;&lt;font face=&quot;Courier New&quot; style=&quot;font-size: 14px;&quot;&gt;.type&amp;nbsp; &amp;nbsp; &amp;nbsp; &amp;nbsp;= TypeImpl指针&lt;/font&gt;&lt;div&gt;&lt;font face=&quot;Courier New&quot; style=&quot;font-size: 14px;&quot;&gt;&amp;nbsp; .&lt;span style=&quot;background-color: initial;&quot;&gt;interfaces = 本class实现的接口&lt;/span&gt;&lt;/font&gt;&lt;/div&gt;&lt;div&gt;&lt;font face=&quot;lV9W4yIe8TjZZVj4JChy&quot; style=&quot;font-size: 14px;&quot;&gt;&amp;nbsp; &amp;nbsp; ......&lt;/font&gt;&lt;/div&gt;&lt;/div&gt;&lt;div style=&quot;font-size: 14px;&quot;&gt;&lt;font face=&quot;Courier New&quot; style=&quot;font-size: 14px;&quot;&gt;&lt;br&gt;&lt;/font&gt;&lt;/div&gt;&lt;div style=&quot;font-size: 14px;&quot;&gt;&lt;font face=&quot;Courier New&quot; style=&quot;font-size: 14px;&quot;&gt;name&amp;nbsp; &amp;nbsp; &amp;nbsp; &amp;nbsp; &amp;nbsp;= &quot;tcg&quot;;&lt;/font&gt;&lt;/div&gt;&lt;div style=&quot;font-size: 14px;&quot;&gt;&lt;font face=&quot;Courier New&quot; style=&quot;font-size: 14px;&quot;&gt;init_machine =&amp;nbsp;&lt;/font&gt;&lt;b style=&quot;font-family: &amp;quot;Courier New&amp;quot;;&quot;&gt;tcg_init_machine&lt;/b&gt;&lt;font face=&quot;Courier New&quot; style=&quot;font-size: 14px;&quot;&gt;;&lt;/font&gt;&lt;/div&gt;" style="text;html=1;align=left;verticalAlign=middle;whiteSpace=wrap;rounded=0;" parent="RpB18B1KrWQebZzPlhfr-50" vertex="1">
          <mxGeometry x="50" y="60" width="360" height="170" as="geometry" />
        </mxCell>
        <mxCell id="RpB18B1KrWQebZzPlhfr-53" value="" style="text;html=1;align=center;verticalAlign=middle;whiteSpace=wrap;rounded=0;strokeColor=default;" parent="RpB18B1KrWQebZzPlhfr-50" vertex="1">
          <mxGeometry x="186" y="102" width="100" height="16" as="geometry" />
        </mxCell>
        <mxCell id="RpB18B1KrWQebZzPlhfr-54" value="" style="endArrow=classic;html=1;rounded=0;exitX=1;exitY=0.5;exitDx=0;exitDy=0;entryX=0.75;entryY=0;entryDx=0;entryDy=0;edgeStyle=orthogonalEdgeStyle;curved=1;dashed=1;" parent="RpB18B1KrWQebZzPlhfr-46" source="RpB18B1KrWQebZzPlhfr-49" target="RpB18B1KrWQebZzPlhfr-51" edge="1">
          <mxGeometry width="50" height="50" relative="1" as="geometry">
            <mxPoint x="247" y="171" as="sourcePoint" />
            <mxPoint x="246.4000000000001" y="259.75" as="targetPoint" />
            <Array as="points">
              <mxPoint x="330" y="159" />
            </Array>
          </mxGeometry>
        </mxCell>
        <mxCell id="RpB18B1KrWQebZzPlhfr-55" value="" style="endArrow=classic;html=1;rounded=0;exitX=0;exitY=0.5;exitDx=0;exitDy=0;entryX=0.25;entryY=1;entryDx=0;entryDy=0;edgeStyle=orthogonalEdgeStyle;curved=1;dashed=1;" parent="RpB18B1KrWQebZzPlhfr-46" source="RpB18B1KrWQebZzPlhfr-53" target="RpB18B1KrWQebZzPlhfr-47" edge="1">
          <mxGeometry width="50" height="50" relative="1" as="geometry">
            <mxPoint x="218.68" y="361" as="sourcePoint" />
            <mxPoint x="218.00000000000017" y="203.5999999999999" as="targetPoint" />
          </mxGeometry>
        </mxCell>
        <mxCell id="RpB18B1KrWQebZzPlhfr-56" value="&lt;span style=&quot;font-family: &amp;quot;Courier New&amp;quot;; text-align: left;&quot;&gt;&lt;b style=&quot;&quot;&gt;&lt;font style=&quot;font-size: 15px;&quot;&gt;struct&amp;nbsp;&lt;/font&gt;&lt;/b&gt;&lt;/span&gt;&lt;span style=&quot;font-family: &amp;quot;Courier New&amp;quot;; font-size: 14px; text-align: left;&quot;&gt;TCGState&lt;/span&gt;&lt;span style=&quot;font-family: &amp;quot;Courier New&amp;quot;; text-align: left;&quot;&gt;&lt;b style=&quot;&quot;&gt;&lt;font style=&quot;font-size: 15px;&quot;&gt;实例&lt;/font&gt;&lt;/b&gt;&lt;/span&gt;&lt;div&gt;&lt;br&gt;&lt;/div&gt;&lt;div&gt;&lt;span style=&quot;font-family: &amp;quot;Courier New&amp;quot;; font-size: 14px; text-align: left;&quot;&gt;&lt;br&gt;&lt;/span&gt;&lt;/div&gt;&lt;div&gt;&lt;span style=&quot;font-family: &amp;quot;Courier New&amp;quot;; font-size: 14px; text-align: left;&quot;&gt;&lt;br&gt;&lt;/span&gt;&lt;/div&gt;&lt;div&gt;&lt;span style=&quot;font-family: &amp;quot;Courier New&amp;quot;; font-size: 14px; text-align: left;&quot;&gt;&lt;br&gt;&lt;/span&gt;&lt;/div&gt;&lt;div&gt;&lt;span style=&quot;font-family: &amp;quot;Courier New&amp;quot;; font-size: 14px; text-align: left;&quot;&gt;&lt;br&gt;&lt;/span&gt;&lt;/div&gt;&lt;div&gt;&lt;span style=&quot;font-family: &amp;quot;Courier New&amp;quot;; font-size: 14px; text-align: left;&quot;&gt;&lt;br&gt;&lt;/span&gt;&lt;/div&gt;&lt;div&gt;&lt;span style=&quot;font-family: &amp;quot;Courier New&amp;quot;; font-size: 14px; text-align: left;&quot;&gt;&lt;br&gt;&lt;/span&gt;&lt;/div&gt;&lt;div&gt;&lt;span style=&quot;font-family: &amp;quot;Courier New&amp;quot;; font-size: 14px; text-align: left;&quot;&gt;&lt;br&gt;&lt;/span&gt;&lt;/div&gt;&lt;div&gt;&lt;span style=&quot;font-family: &amp;quot;Courier New&amp;quot;; font-size: 14px; text-align: left;&quot;&gt;&lt;br&gt;&lt;/span&gt;&lt;/div&gt;&lt;div&gt;&lt;span style=&quot;font-family: &amp;quot;Courier New&amp;quot;; font-size: 14px; text-align: left;&quot;&gt;&lt;br&gt;&lt;/span&gt;&lt;/div&gt;" style="rounded=1;whiteSpace=wrap;html=1;fillColor=#f8cecc;strokeColor=none;" parent="RpB18B1KrWQebZzPlhfr-46" vertex="1">
          <mxGeometry y="567" width="440" height="220" as="geometry" />
        </mxCell>
        <mxCell id="RpB18B1KrWQebZzPlhfr-57" value="&lt;font face=&quot;Courier New&quot;&gt;&lt;span style=&quot;font-size: 14px;&quot;&gt;AccelState parent_obj&lt;/span&gt;&lt;/font&gt;&lt;div&gt;&lt;font face=&quot;Courier New&quot;&gt;&lt;span style=&quot;font-size: 14px;&quot;&gt;&amp;nbsp; &amp;nbsp; Object parent_obj&lt;/span&gt;&lt;/font&gt;&lt;/div&gt;&lt;div&gt;&lt;font face=&quot;Courier New&quot;&gt;&lt;span style=&quot;font-size: 14px;&quot;&gt;&amp;nbsp; &amp;nbsp; &amp;nbsp; &amp;nbsp;&amp;nbsp;&lt;/span&gt;&lt;/font&gt;&lt;span style=&quot;background-color: initial; font-size: 14px;&quot;&gt;&lt;font face=&quot;Courier New&quot;&gt;ObjectClass *class = class-object指针&lt;/font&gt;&lt;/span&gt;&lt;/div&gt;&lt;div&gt;&lt;div style=&quot;font-size: 14px;&quot;&gt;&lt;font face=&quot;Courier New&quot; style=&quot;font-size: 14px;&quot;&gt;&lt;br&gt;&lt;/font&gt;&lt;/div&gt;&lt;div style=&quot;font-size: 14px;&quot;&gt;&lt;span style=&quot;font-family: &amp;quot;Courier New&amp;quot;; background-color: initial;&quot;&gt;...&lt;/span&gt;&lt;br&gt;&lt;/div&gt;&lt;/div&gt;&lt;div style=&quot;font-size: 14px;&quot;&gt;&lt;span style=&quot;font-family: &amp;quot;Courier New&amp;quot;; background-color: initial;&quot;&gt;&lt;br&gt;&lt;/span&gt;&lt;/div&gt;&lt;div style=&quot;font-size: 14px;&quot;&gt;&lt;br&gt;&lt;/div&gt;" style="text;html=1;align=left;verticalAlign=middle;whiteSpace=wrap;rounded=0;" parent="RpB18B1KrWQebZzPlhfr-46" vertex="1">
          <mxGeometry x="30" y="617" width="410" height="170" as="geometry" />
        </mxCell>
        <mxCell id="RpB18B1KrWQebZzPlhfr-58" value="" style="text;html=1;align=center;verticalAlign=middle;whiteSpace=wrap;rounded=0;strokeColor=default;" parent="RpB18B1KrWQebZzPlhfr-46" vertex="1">
          <mxGeometry x="273" y="673" width="136" height="20" as="geometry" />
        </mxCell>
        <mxCell id="RpB18B1KrWQebZzPlhfr-59" value="" style="endArrow=classic;html=1;rounded=0;exitX=1;exitY=0.5;exitDx=0;exitDy=0;entryX=0.75;entryY=1;entryDx=0;entryDy=0;edgeStyle=orthogonalEdgeStyle;curved=1;dashed=1;" parent="RpB18B1KrWQebZzPlhfr-46" source="RpB18B1KrWQebZzPlhfr-58" target="RpB18B1KrWQebZzPlhfr-51" edge="1">
          <mxGeometry width="50" height="50" relative="1" as="geometry">
            <mxPoint x="690" y="360" as="sourcePoint" />
            <mxPoint x="740" y="310" as="targetPoint" />
          </mxGeometry>
        </mxCell>
      </root>
    </mxGraphModel>
  </diagram>
</mxfile>
